HIERARCHY
ROOT mixamorig:Hips
{
	OFFSET -0.000008 104.274872 1.554316
	CHANNELS 6 Xposition Yposition Zposition Xrotation Yrotation Zrotation
	JOINT mixamorig:Spine
	{
		OFFSET -0.000005 10.181595 0.131519
		CHANNELS 6 Xposition Yposition Zposition Xrotation Yrotation Zrotation
		JOINT mixamorig:Spine1
		{
			OFFSET -0.000000 9.893959 -1.470707
			CHANNELS 6 Xposition Yposition Zposition Xrotation Yrotation Zrotation
			JOINT mixamorig:Spine2
			{
				OFFSET -0.000000 9.220757 -1.370641
				CHANNELS 6 Xposition Yposition Zposition Xrotation Yrotation Zrotation
				JOINT mixamorig:Neck
				{
					OFFSET 0.000001 16.740417 -2.049036
					CHANNELS 6 Xposition Yposition Zposition Xrotation Yrotation Zrotation
					JOINT mixamorig:Head
					{
						OFFSET 0.000000 9.617874 1.685006
						CHANNELS 6 Xposition Yposition Zposition Xrotation Yrotation Zrotation
						JOINT mixamorig:HeadTop_End
						{
							OFFSET 0.000002 22.037354 7.501101
							CHANNELS 6 Xposition Yposition Zposition Xrotation Yrotation Zrotation
							End Site
							{
								OFFSET 0.000168 2310.654297 -282.823242
							}
						}
					}
				}
				JOINT mixamorig:RightShoulder
				{
					OFFSET -4.569970 11.014908 -2.160885
					CHANNELS 6 Xposition Yposition Zposition Xrotation Yrotation Zrotation
					JOINT mixamorig:RightArm
					{
						OFFSET -10.592851 -0.524811 -2.232101
						CHANNELS 6 Xposition Yposition Zposition Xrotation Yrotation Zrotation
						JOINT mixamorig:RightForeArm
						{
							OFFSET -27.841511 0.000031 -0.000004
							CHANNELS 6 Xposition Yposition Zposition Xrotation Yrotation Zrotation
							JOINT mixamorig:RightHand
							{
								OFFSET -28.328831 -0.000015 0.000015
								CHANNELS 6 Xposition Yposition Zposition Xrotation Yrotation Zrotation
								JOINT mixamorig:RightHandThumb1
								{
									OFFSET -2.464806 -1.573990 2.681852
									CHANNELS 6 Xposition Yposition Zposition Xrotation Yrotation Zrotation
									JOINT mixamorig:RightHandThumb2
									{
										OFFSET -3.215179 -1.872803 1.924282
										CHANNELS 6 Xposition Yposition Zposition Xrotation Yrotation Zrotation
										JOINT mixamorig:RightHandThumb3
										{
											OFFSET -2.654831 -1.527969 1.512609
											CHANNELS 6 Xposition Yposition Zposition Xrotation Yrotation Zrotation
											JOINT mixamorig:RightHandThumb4
											{
												OFFSET -2.018814 -1.152008 1.108052
												CHANNELS 6 Xposition Yposition Zposition Xrotation Yrotation Zrotation
												End Site
												{
													OFFSET -188.809540 -114.533607 132.431396
												}
											}
										}
									}
								}
								JOINT mixamorig:RightHandIndex1
								{
									OFFSET -9.108284 -0.517868 2.259835
									CHANNELS 6 Xposition Yposition Zposition Xrotation Yrotation Zrotation
									JOINT mixamorig:RightHandIndex2
									{
										OFFSET -3.699989 0.000000 0.001215
										CHANNELS 6 Xposition Yposition Zposition Xrotation Yrotation Zrotation
										JOINT mixamorig:RightHandIndex3
										{
											OFFSET -2.850006 0.000031 -0.000522
											CHANNELS 6 Xposition Yposition Zposition Xrotation Yrotation Zrotation
											JOINT mixamorig:RightHandIndex4
											{
												OFFSET -2.772186 -0.000015 -0.000020
												CHANNELS 6 Xposition Yposition Zposition Xrotation Yrotation Zrotation
												End Site
												{
													OFFSET -277.218445 0.000000 -0.050231
												}
											}
										}
									}
								}
								JOINT mixamorig:RightHandMiddle1
								{
									OFFSET -9.532516 -0.000031 -0.000023
									CHANNELS 6 Xposition Yposition Zposition Xrotation Yrotation Zrotation
									JOINT mixamorig:RightHandMiddle2
									{
										OFFSET -3.700005 -0.000015 0.003713
										CHANNELS 6 Xposition Yposition Zposition Xrotation Yrotation Zrotation
										JOINT mixamorig:RightHandMiddle3
										{
											OFFSET -2.949974 0.000015 -0.002054
											CHANNELS 6 Xposition Yposition Zposition Xrotation Yrotation Zrotation
											JOINT mixamorig:RightHandMiddle4
											{
												OFFSET -2.946640 0.000000 -0.000156
												CHANNELS 6 Xposition Yposition Zposition Xrotation Yrotation Zrotation
												End Site
												{
													OFFSET -294.664337 0.000000 -0.113670
												}
											}
										}
									}
								}
								JOINT mixamorig:RightHandRing1
								{
									OFFSET -9.103600 -0.043076 -1.865134
									CHANNELS 6 Xposition Yposition Zposition Xrotation Yrotation Zrotation
									JOINT mixamorig:RightHandRing2
									{
										OFFSET -3.379288 0.000000 -0.001055
										CHANNELS 6 Xposition Yposition Zposition Xrotation Yrotation Zrotation
										JOINT mixamorig:RightHandRing3
										{
											OFFSET -2.889687 -0.000015 0.000379
											CHANNELS 6 Xposition Yposition Zposition Xrotation Yrotation Zrotation
											JOINT mixamorig:RightHandRing4
											{
												OFFSET -2.638809 -0.000015 0.000941
												CHANNELS 6 Xposition Yposition Zposition Xrotation Yrotation Zrotation
												End Site
												{
													OFFSET -263.880371 0.000000 0.516020
												}
											}
										}
									}
								}
								JOINT mixamorig:RightHandPinky1
								{
									OFFSET -8.076683 -0.486710 -3.806280
									CHANNELS 6 Xposition Yposition Zposition Xrotation Yrotation Zrotation
									JOINT mixamorig:RightHandPinky2
									{
										OFFSET -3.600014 -0.000015 -0.003747
										CHANNELS 6 Xposition Yposition Zposition Xrotation Yrotation Zrotation
										JOINT mixamorig:RightHandPinky3
										{
											OFFSET -2.099983 0.000000 -0.005739
											CHANNELS 6 Xposition Yposition Zposition Xrotation Yrotation Zrotation
											JOINT mixamorig:RightHandPinky4
											{
												OFFSET -2.115768 -0.000031 -0.003680
												CHANNELS 6 Xposition Yposition Zposition Xrotation Yrotation Zrotation
												End Site
												{
													OFFSET -211.577087 0.000000 -0.350686
												}
											}
										}
									}
								}
							}
						}
					}
				}
				JOINT mixamorig:LeftShoulder
				{
					OFFSET 4.570447 11.014725 -2.160855
					CHANNELS 6 Xposition Yposition Zposition Xrotation Yrotation Zrotation
					JOINT mixamorig:LeftArm
					{
						OFFSET 10.592371 -0.524597 -2.232119
						CHANNELS 6 Xposition Yposition Zposition Xrotation Yrotation Zrotation
						JOINT mixamorig:LeftForeArm
						{
							OFFSET 27.841532 -0.000031 0.000026
							CHANNELS 6 Xposition Yposition Zposition Xrotation Yrotation Zrotation
							JOINT mixamorig:LeftHand
							{
								OFFSET 28.328846 -0.000061 0.000022
								CHANNELS 6 Xposition Yposition Zposition Xrotation Yrotation Zrotation
								JOINT mixamorig:LeftHandThumb1
								{
									OFFSET 2.466141 -1.576172 2.681732
									CHANNELS 6 Xposition Yposition Zposition Xrotation Yrotation Zrotation
									JOINT mixamorig:LeftHandThumb2
									{
										OFFSET 3.217812 -1.872070 1.916482
										CHANNELS 6 Xposition Yposition Zposition Xrotation Yrotation Zrotation
										JOINT mixamorig:LeftHandThumb3
										{
											OFFSET 2.656029 -1.528778 1.514513
											CHANNELS 6 Xposition Yposition Zposition Xrotation Yrotation Zrotation
											JOINT mixamorig:LeftHandThumb4
											{
												OFFSET 2.020889 -1.154053 1.115139
												CHANNELS 6 Xposition Yposition Zposition Xrotation Yrotation Zrotation
												End Site
												{
													OFFSET 190.885437 -115.081749 130.048782
												}
											}
										}
									}
								}
								JOINT mixamorig:LeftHandIndex1
								{
									OFFSET 9.109314 -0.518021 2.259871
									CHANNELS 6 Xposition Yposition Zposition Xrotation Yrotation Zrotation
									JOINT mixamorig:LeftHandIndex2
									{
										OFFSET 3.699989 0.000000 -0.000322
										CHANNELS 6 Xposition Yposition Zposition Xrotation Yrotation Zrotation
										JOINT mixamorig:LeftHandIndex3
										{
											OFFSET 2.850006 0.000000 0.000352
											CHANNELS 6 Xposition Yposition Zposition Xrotation Yrotation Zrotation
											JOINT mixamorig:LeftHandIndex4
											{
												OFFSET 2.774864 -0.000031 -0.000027
												CHANNELS 6 Xposition Yposition Zposition Xrotation Yrotation Zrotation
												End Site
												{
													OFFSET 277.486267 0.000000 -0.009857
												}
											}
										}
									}
								}
								JOINT mixamorig:LeftHandMiddle1
								{
									OFFSET 9.533394 0.000061 0.000044
									CHANNELS 6 Xposition Yposition Zposition Xrotation Yrotation Zrotation
									JOINT mixamorig:LeftHandMiddle2
									{
										OFFSET 3.699989 -0.000015 -0.000231
										CHANNELS 6 Xposition Yposition Zposition Xrotation Yrotation Zrotation
										JOINT mixamorig:LeftHandMiddle3
										{
											OFFSET 2.949997 -0.000015 -0.000059
											CHANNELS 6 Xposition Yposition Zposition Xrotation Yrotation Zrotation
											JOINT mixamorig:LeftHandMiddle4
											{
												OFFSET 2.952896 0.000031 0.000063
												CHANNELS 6 Xposition Yposition Zposition Xrotation Yrotation Zrotation
												End Site
												{
													OFFSET 295.289337 0.000000 0.022810
												}
											}
										}
									}
								}
								JOINT mixamorig:LeftHandRing1
								{
									OFFSET 9.104523 -0.042999 -1.865074
									CHANNELS 6 Xposition Yposition Zposition Xrotation Yrotation Zrotation
									JOINT mixamorig:LeftHandRing2
									{
										OFFSET 3.150009 -0.000031 0.000043
										CHANNELS 6 Xposition Yposition Zposition Xrotation Yrotation Zrotation
										JOINT mixamorig:LeftHandRing3
										{
											OFFSET 2.949982 -0.000015 0.000040
											CHANNELS 6 Xposition Yposition Zposition Xrotation Yrotation Zrotation
											JOINT mixamorig:LeftHandRing4
											{
												OFFSET 2.644348 0.000000 0.000057
												CHANNELS 6 Xposition Yposition Zposition Xrotation Yrotation Zrotation
												End Site
												{
													OFFSET 264.434631 0.000000 0.012105
												}
											}
										}
									}
								}
								JOINT mixamorig:LeftHandPinky1
								{
									OFFSET 8.077789 -0.486847 -3.806259
									CHANNELS 6 Xposition Yposition Zposition Xrotation Yrotation Zrotation
									JOINT mixamorig:LeftHandPinky2
									{
										OFFSET 3.599953 0.000031 0.014727
										CHANNELS 6 Xposition Yposition Zposition Xrotation Yrotation Zrotation
										JOINT mixamorig:LeftHandPinky3
										{
											OFFSET 2.100021 0.000015 0.007705
											CHANNELS 6 Xposition Yposition Zposition Xrotation Yrotation Zrotation
											JOINT mixamorig:LeftHandPinky4
											{
												OFFSET 2.125504 0.000031 0.007517
												CHANNELS 6 Xposition Yposition Zposition Xrotation Yrotation Zrotation
												End Site
												{
													OFFSET 212.550781 0.000000 0.625752
												}
											}
										}
									}
								}
							}
						}
					}
				}
			}
		}
	}
	JOINT mixamorig:RightUpLeg
	{
		OFFSET -8.207787 -6.751648 -1.599560
		CHANNELS 6 Xposition Yposition Zposition Xrotation Yrotation Zrotation
		JOINT mixamorig:RightLeg
		{
			OFFSET -0.000002 -44.370117 0.345942
			CHANNELS 6 Xposition Yposition Zposition Xrotation Yrotation Zrotation
			JOINT mixamorig:RightFoot
			{
				OFFSET 0.000003 -44.423679 -3.043532
				CHANNELS 6 Xposition Yposition Zposition Xrotation Yrotation Zrotation
				JOINT mixamorig:RightToeBase
				{
					OFFSET -0.000002 -8.728671 10.710558
					CHANNELS 6 Xposition Yposition Zposition Xrotation Yrotation Zrotation
					JOINT mixamorig:RightToe_End
					{
						OFFSET -0.000001 -0.000679 9.278119
						CHANNELS 6 Xposition Yposition Zposition Xrotation Yrotation Zrotation
						End Site
						{
							OFFSET 0.000000 -0.067690 927.812134
						}
					}
				}
			}
		}
	}
	JOINT mixamorig:LeftUpLeg
	{
		OFFSET 8.207793 -6.751686 -1.599556
		CHANNELS 6 Xposition Yposition Zposition Xrotation Yrotation Zrotation
		JOINT mixamorig:LeftLeg
		{
			OFFSET -0.000004 -44.370014 0.346954
			CHANNELS 6 Xposition Yposition Zposition Xrotation Yrotation Zrotation
			JOINT mixamorig:LeftFoot
			{
				OFFSET -0.000001 -44.423672 -3.044401
				CHANNELS 6 Xposition Yposition Zposition Xrotation Yrotation Zrotation
				JOINT mixamorig:LeftToeBase
				{
					OFFSET -0.000002 -8.728669 10.710558
					CHANNELS 6 Xposition Yposition Zposition Xrotation Yrotation Zrotation
					JOINT mixamorig:LeftToe_End
					{
						OFFSET -0.000003 -0.000679 9.278133
						CHANNELS 6 Xposition Yposition Zposition Xrotation Yrotation Zrotation
						End Site
						{
							OFFSET 0.000000 -0.068021 927.813477
						}
					}
				}
			}
		}
	}
}
MOTION
Frames: 3
Frame Time: 0.033333
0.000006 104.270477 1.554256 0.000010 0.000003 -0.000113 -0.000005 10.181587 0.131522 0.000001 -0.000003 0.000084 -0.000000 9.893967 -1.470711 0.000001 0.000000 -0.000000 -0.000000 9.220802 -1.370642 0.000000 -0.000000 -0.000000 0.000001 16.740433 -2.049030 0.000000 -0.000000 -0.000000 0.000000 9.617859 1.685014 0.000000 0.000000 0.000000 0.000002 22.037384 7.501101 0.000000 -0.000000 0.000000 -4.569968 11.014880 -2.160881 0.000008 0.000001 -0.000038 -10.592871 -0.524761 -2.231917 79.166742 28.137014 -23.411062 -27.841511 0.000011 0.000560 -48.003013 109.566254 64.487566 -28.328825 0.000005 0.000025 -0.000320 -0.000044 0.000006 -2.464584 -1.573611 2.682241 -56.027516 166.875660 -58.433689 -3.215267 -1.872557 1.924650 150.096180 30.566227 0.182707 -2.654971 -1.527878 1.513063 144.226411 28.010672 -29.585723 -2.018827 -1.151980 1.108061 0.000001 -0.000002 0.000005 -9.108389 -0.517551 2.260128 101.055470 15.305122 -18.588841 -3.700073 0.000313 0.001532 98.475502 13.683580 -15.820422 -2.850075 0.000356 -0.000250 97.476655 12.110667 -13.787519 -2.772171 -0.000000 -0.000018 -0.000001 -0.000001 0.000000 -9.532593 0.000265 0.000209 87.962209 16.408408 -15.980459 -3.700097 0.000329 0.003941 87.921767 12.829551 -12.283921 -2.950077 0.000337 -0.001824 89.509021 12.361287 -12.249517 -2.946616 0.000002 -0.000156 0.000001 0.000002 -0.000000 -9.103731 -0.042779 -1.864901 82.898279 20.551421 -18.151622 -3.379311 0.000316 -0.000857 83.940136 10.031413 -9.042951 -2.889773 0.000341 0.000598 89.211116 7.295364 -7.240997 -2.638810 -0.000015 0.000940 0.000000 0.000001 0.000000 -8.076768 -0.486403 -3.806061 72.983481 20.838414 -15.373948 -3.600035 0.000252 -0.003586 73.019558 9.910067 -7.073384 -2.100012 0.000312 -0.005551 75.433955 5.526743 -4.105427 -2.115785 -0.000041 -0.003672 0.000001 0.000001 -0.000006 4.570446 11.014691 -2.160851 -0.000018 0.000010 -0.000021 10.592546 -0.524529 -2.232399 82.317146 -65.047764 58.271786 27.841740 -0.000097 -0.000107 64.254670 -104.418443 78.003602 28.328833 -0.000013 0.000028 0.000024 -0.000088 -0.000000 2.466170 -1.576135 2.681885 321.936486 -18.645568 12.203925 3.217854 -1.871943 1.916591 298.196333 10.099925 17.840639 2.656071 -1.528734 1.514611 -67.995838 19.955434 21.985986 2.020887 -1.154044 1.115155 0.000001 0.000000 0.000001 9.109272 -0.517846 2.260107 -96.518243 -13.295426 -14.875710 3.699976 0.000169 -0.000057 -96.520326 -6.366236 -7.147361 2.850007 0.000211 0.000570 -99.955632 -2.173275 -2.586595 2.774873 -0.000014 -0.000023 0.000001 -0.000001 -0.000001 9.533361 0.000218 0.000299 -95.044452 -12.228706 -13.339983 3.700004 0.000172 -0.000009 -94.756000 -2.399368 -2.604892 2.950021 0.000175 0.000178 -94.872851 0.355024 0.383881 2.952859 -0.000015 0.000078 0.000003 0.000000 -0.000001 9.104507 -0.042840 -1.864831 -93.679808 -8.116253 -8.654463 3.149996 0.000184 0.000261 -88.635221 -2.206165 -2.155679 2.949989 0.000147 0.000278 -86.106699 -0.666828 -0.624353 2.644326 0.000030 0.000042 -0.000003 -0.000000 -0.000000 8.077765 -0.486702 -3.806003 -89.386406 -5.781139 -6.134232 3.599942 0.000178 0.014983 -85.553078 -2.158773 -2.371777 2.100000 0.000153 0.007920 -85.148779 0.153453 -0.231002 2.125490 -0.000001 0.007496 -0.000002 -0.000000 -0.000001 -8.207786 -6.751667 -1.599560 -0.077001 -0.000003 0.000080 -0.000002 -44.370110 0.345938 0.153719 -0.000000 -0.000000 0.000000 -44.423679 -3.043532 -0.076700 0.000000 -0.000002 -0.000006 -8.728667 10.710559 -0.000009 -0.000000 -0.000000 -0.000001 -0.000679 9.278123 0.000000 -0.000000 -0.000000 8.207792 -6.751710 -1.599556 -0.074518 -0.000003 0.000081 -0.000002 -44.370014 0.346960 0.148822 0.000002 0.000000 -0.000001 -44.423664 -3.044403 -0.074314 0.000000 -0.000002 -0.000004 -8.728671 10.710558 0.000007 -0.000000 -0.000000 0.000000 -0.000680 9.278137 -0.000000 0.000000 -0.000001 
0.000006 104.270477 1.554256 0.000010 0.000003 -0.000113 -0.000005 10.181587 0.131522 0.000001 -0.000003 0.000084 -0.000000 9.893967 -1.470711 0.000001 0.000000 -0.000000 -0.000000 9.220802 -1.370642 0.000000 -0.000000 -0.000000 0.000001 16.740433 -2.049030 0.000000 -0.000000 -0.000000 0.000000 9.617859 1.685014 0.000000 0.000000 0.000000 0.000002 22.037384 7.501101 0.000000 -0.000000 0.000000 -4.569968 11.014880 -2.160881 0.000008 0.000001 -0.000038 -10.592868 -0.524780 -2.231876 79.349470 32.922454 -27.542372 -27.841499 0.000010 0.000548 -47.947686 109.187192 64.058500 -28.328814 0.000023 0.000027 -0.000319 -0.000043 0.000007 -2.464558 -1.573623 2.682248 -56.126608 169.631846 -53.042590 -3.215290 -1.872612 1.924654 151.177945 30.486122 -1.193579 -2.654961 -1.527871 1.513065 144.857848 27.857330 -30.481874 -2.018838 -1.151987 1.108068 -0.000005 -0.000002 0.000004 -9.108386 -0.517560 2.260130 101.539409 15.694270 -19.219348 -3.700089 0.000312 0.001534 98.538968 13.710614 -15.869166 -2.850101 0.000360 -0.000253 97.288217 11.866147 -13.465396 -2.772172 0.000001 -0.000021 -0.000001 0.000002 0.000000 -9.532589 0.000259 0.000222 88.497334 16.712358 -16.425297 -3.700066 0.000317 0.003946 88.240382 12.365232 -11.901813 -2.950070 0.000333 -0.001820 89.646998 12.076795 -11.996055 -2.946620 0.000001 -0.000155 -0.000006 0.000000 0.000001 -9.103727 -0.042796 -1.864905 83.448068 20.413045 -18.200770 -3.379323 0.000300 -0.000860 84.582146 9.383146 -8.554378 -2.889766 0.000339 0.000609 89.797938 6.888944 -6.910091 -2.638816 -0.000025 0.000947 -0.000002 -0.000002 0.000003 -8.076773 -0.486423 -3.806071 73.165430 20.431773 -15.118723 -3.600042 0.000252 -0.003586 74.324964 9.700224 -7.084410 -2.100005 0.000302 -0.005555 77.624902 5.402621 -4.170499 -2.115774 -0.000037 -0.003677 0.000003 -0.000002 -0.000001 4.570446 11.014691 -2.160851 -0.000018 0.000010 -0.000021 10.592546 -0.524524 -2.232403 82.307031 -64.524674 57.772677 27.841740 -0.000054 -0.000109 63.991236 -104.053253 77.349495 28.328840 -0.000044 0.000025 0.000022 -0.000088 -0.000000 2.466183 -1.576137 2.681888 322.084155 -21.675091 12.498671 3.217865 -1.871959 1.916562 297.757015 9.327543 17.896651 2.656070 -1.528763 1.514614 -68.936252 19.870834 22.376162 2.020890 -1.154058 1.115148 0.000000 0.000003 0.000006 9.109286 -0.517861 2.260112 -96.696238 -14.086804 -15.808377 3.699980 0.000176 -0.000079 -97.302718 -7.067347 -8.041770 2.850005 0.000216 0.000606 -101.189013 -2.982130 -3.628143 2.774888 -0.000031 -0.000021 -0.000001 -0.000001 -0.000000 9.533365 0.000234 0.000287 -95.045368 -13.139353 -14.332599 3.699998 0.000169 0.000002 -94.741820 -3.545760 -3.849560 2.950002 0.000169 0.000195 -95.126312 -0.880595 -0.965776 2.952874 -0.000015 0.000063 0.000004 -0.000001 -0.000000 9.104501 -0.042853 -1.864838 -93.310930 -9.287947 -9.839547 3.149998 0.000188 0.000279 -88.280373 -3.978258 -3.862089 2.949977 0.000167 0.000267 -86.090389 -2.283665 -2.134287 2.644318 0.000030 0.000044 -0.000003 -0.000000 -0.000000 8.077772 -0.486706 -3.806013 -89.326198 -7.321244 -7.636251 3.599947 0.000188 0.014975 -85.190614 -4.478403 -4.473217 2.099996 0.000167 0.007940 -85.521161 -1.982868 -2.193850 2.125510 -0.000018 0.007513 -0.000001 0.000000 0.000001 -8.207786 -6.751667 -1.599560 -0.077001 -0.000003 0.000080 -0.000002 -44.370110 0.345938 0.153719 -0.000000 -0.000000 0.000000 -44.423679 -3.043532 -0.076700 0.000000 -0.000002 -0.000006 -8.728667 10.710559 -0.000009 -0.000000 -0.000000 -0.000001 -0.000679 9.278123 0.000000 -0.000000 -0.000000 8.207792 -6.751710 -1.599556 -0.074518 -0.000003 0.000081 -0.000002 -44.370014 0.346960 0.148822 0.000002 0.000000 -0.000001 -44.423664 -3.044403 -0.074314 0.000000 -0.000002 -0.000004 -8.728671 10.710558 0.000007 -0.000000 -0.000000 0.000000 -0.000680 9.278137 -0.000000 0.000000 -0.000001 
0.000006 104.270477 1.554256 0.000010 0.000003 -0.000113 -0.000005 10.181587 0.131522 0.000001 -0.000003 0.000084 -0.000000 9.893967 -1.470711 0.000001 0.000000 -0.000000 -0.000000 9.220802 -1.370642 0.000000 -0.000000 -0.000000 0.000001 16.740433 -2.049030 0.000000 -0.000000 -0.000000 0.000000 9.617859 1.685014 0.000000 0.000000 0.000000 0.000002 22.037384 7.501101 0.000000 -0.000000 0.000000 -4.569968 11.014880 -2.160881 0.000008 0.000001 -0.000038 -10.592875 -0.524763 -2.231907 79.396100 29.049945 -24.276511 -27.841513 -0.000007 0.000560 -47.660619 109.012073 63.544522 -28.328817 0.000019 0.000027 -0.000318 -0.000043 0.000005 -2.464557 -1.573620 2.682238 -56.513405 169.856792 -54.638371 -3.215284 -1.872565 1.924645 149.832958 30.811315 2.333820 -2.654962 -1.527863 1.513060 144.393409 28.075926 -28.355163 -2.018826 -1.152003 1.108067 -0.000001 -0.000003 0.000002 -9.108389 -0.517545 2.260129 100.529012 14.844030 -17.868038 -3.700063 0.000322 0.001529 98.705516 12.990333 -15.080581 -2.850086 0.000371 -0.000254 97.770784 11.553328 -13.221980 -2.772183 0.000002 -0.000018 0.000001 -0.000001 -0.000001 -9.532601 0.000270 0.000210 88.377348 15.958414 -15.656689 -3.700073 0.000317 0.003953 88.480825 12.023806 -11.619196 -2.950064 0.000340 -0.001823 90.141886 12.083984 -12.106569 -2.946614 0.000003 -0.000155 0.000005 0.000000 -0.000001 -9.103725 -0.042771 -1.864907 83.645837 19.842377 -17.749474 -3.379326 0.000319 -0.000859 84.445495 9.090095 -8.267684 -2.889761 0.000351 0.000595 90.026777 7.026021 -7.074902 -2.638827 -0.000014 0.000938 -0.000002 -0.000002 0.000001 -8.076776 -0.486408 -3.806077 74.340038 20.520678 -15.509582 -3.600041 0.000255 -0.003595 74.103939 9.497308 -6.903180 -2.100013 0.000304 -0.005556 77.009222 5.280208 -4.027669 -2.115757 -0.000026 -0.003685 -0.000000 0.000002 -0.000005 4.570446 11.014691 -2.160851 -0.000018 0.000010 -0.000021 10.592548 -0.524516 -2.232406 82.400215 -63.191490 56.603540 27.841724 -0.000072 -0.000106 64.037408 -104.179912 77.527100 28.328838 -0.000027 0.000019 0.000024 -0.000089 0.000000 2.466169 -1.576139 2.681897 320.893653 -19.214331 12.354853 3.217842 -1.871925 1.916569 297.159947 9.803397 18.159393 2.656055 -1.528753 1.514621 -69.425608 19.879158 22.589059 2.020891 -1.154068 1.115145 0.000002 0.000005 0.000002 9.109269 -0.517851 2.260103 -97.865614 -14.198292 -16.260105 3.699977 0.000171 -0.000066 -97.626455 -7.640743 -8.741854 2.849993 0.000225 0.000605 -101.153701 -3.146176 -3.825352 2.774879 -0.000031 -0.000017 -0.000000 0.000001 -0.000000 9.533361 0.000223 0.000275 -96.174350 -12.852554 -14.297584 3.699991 0.000197 -0.000006 -95.499773 -3.746119 -4.121533 2.950004 0.000176 0.000174 -95.842820 -1.066337 -1.183692 2.952873 -0.000014 0.000079 0.000003 -0.000001 -0.000000 9.104504 -0.042851 -1.864824 -94.738959 -8.934290 -9.703495 3.149995 0.000180 0.000295 -89.621706 -3.649213 -3.626635 2.949978 0.000144 0.000280 -87.126501 -1.924211 -1.831424 2.644323 0.000014 0.000056 0.000000 -0.000000 0.000001 8.077755 -0.486720 -3.806015 -90.886834 -6.707993 -7.229358 3.599939 0.000180 0.014989 -86.992076 -3.565477 -3.756765 2.099991 0.000198 0.007949 -87.552554 -1.201279 -1.529669 2.125501 0.000001 0.007511 0.000001 0.000000 0.000001 -8.207786 -6.751667 -1.599560 -0.077001 -0.000003 0.000080 -0.000002 -44.370110 0.345938 0.153719 -0.000000 -0.000000 0.000000 -44.423679 -3.043532 -0.076700 0.000000 -0.000002 -0.000006 -8.728667 10.710559 -0.000009 -0.000000 -0.000000 -0.000001 -0.000679 9.278123 0.000000 -0.000000 -0.000000 8.207792 -6.751710 -1.599556 -0.074518 -0.000003 0.000081 -0.000002 -44.370014 0.346960 0.148822 0.000002 0.000000 -0.000001 -44.423664 -3.044403 -0.074314 0.000000 -0.000002 -0.000004 -8.728671 10.710558 0.000007 -0.000000 -0.000000 0.000000 -0.000680 9.278137 -0.000000 0.000000 -0.000001 
